# xmcd CD database file
#
# Track frame offsets:
#	150
#	17980
#	33521
#	51369
#	66351
#	80643
#	95999
#	113962
#	133339
#	148503
#	166375
#	184687
#	201880
#	221349
#	238929
#
# Disc length: 3636 seconds
#
# Revision: 1
# Processed by: cddbd v1.4PL0 Copyright (c) Steve Scherf et al.
# Submitted via: CDex 1.50
#
DISCID=eb0e320f
DTITLE=Edge of the 80s - Heart of the Eighties CD 2
DYEAR=2003
DGENRE=New Age
TTITLE0=Cry
TTITLE1=Don't mess with Doctor Dream
TTITLE2=Obsession
TTITLE3=No say in it
TTITLE4=Searchin' (I Gotta find a man)
TTITLE5=Hit that perfect beat
TTITLE6=The War Song
TTITLE7=Word Up
TTITLE8=Love and Pride
TTITLE9=Somebody's Watch Me
TTITLE10=Blue Day
TTITLE11=Lets go all the Way
TTITLE12=Head over Heels
TTITLE13=Skin Deep
TTITLE14=Peter Gunn
EXTD=YEAR: 2003
EXTT0=
EXTT1=
EXTT2=
EXTT3=
EXTT4=
EXTT5=
EXTT6=
EXTT7=
EXTT8=
EXTT9=
EXTT10=
EXTT11=
EXTT12=
EXTT13=
EXTT14=
PLAYORDER=
